<?xml version="1.0" encoding="utf-8"?>
<!-- Generator: Adobe Illustrator 26.0.1, SVG Export Plug-In . SVG Version: 6.00 Build 0)  -->
<svg version="1.1" id="Layer_1" xmlns="http://www.w3.org/2000/svg" xmlns:xlink="http://www.w3.org/1999/xlink" x="0px" y="0px"
	 viewBox="0 0 578.7 238.9" style="enable-background:new 0 0 578.7 238.9;" xml:space="preserve">
<style type="text/css">
	.st0{clip-path:url(#SVGID_00000176004937151292510610000008206022065841957766_);}
	.st1{fill:none;stroke:#000000;stroke-width:8;stroke-linecap:round;stroke-linejoin:round;}
	.st2{fill:#FFFFFF;}
</style>
<g id="Layer_1_00000165213354906624832830000012894394930373401754_">
	<g>
		<g>
			<defs>
				<path id="SVGID_1_" d="M108,0c0,0-8.5-2.3-13.9,4.4s-91.5,114-91.5,114s-5.9,6.6,0,14.7s80.6,101.3,80.6,101.3s3.7,4.5,9.2,4.5
					s138.3,0,138.3,0s5.3,0.1,8.4-3.7s50.2-50.2,50.2-50.2l50.4,50.4c0,0,3.2,3.5,8.3,3.5s138.3,0,138.3,0s6.2,0.1,9.2-4.5
					S576.1,133,576.1,133s6.3-6.9,0-14.7S484.6,4.4,484.6,4.4S481.3,0,475.4,0S108,0,108,0z"/>
			</defs>
			<clipPath id="SVGID_00000181065292442925814920000004233716276584241324_">
				<use xlink:href="#SVGID_1_"  style="overflow:visible;"/>
			</clipPath>
			<g style="clip-path:url(#SVGID_00000181065292442925814920000004233716276584241324_);">
				<g>
					<path class="st1" d="M279.6,62.4"/>
				</g>
				<g>
					<path d="M230.7,238.9H92.4c-3.6,0-7-1.6-9.2-4.5L2.6,133.1c-3.4-4.3-3.4-10.4,0-14.7l91.5-114c2.2-2.8,5.6-4.4,9.2-4.4h127.4
						c4.8,0,9.1,2.9,10.9,7.3c1.8,4.4,0.8,9.5-2.6,12.9L130.4,126.9l107.9,91.2c3.8,3.2,5.2,8.4,3.5,13.1
						C240.1,235.8,235.7,238.9,230.7,238.9z M98.1,215.3h100.4l-93.1-78.7c-2.5-2.1-4.1-5.2-4.2-8.6c-0.1-3.3,1.1-6.5,3.5-8.9
						l97.2-95.6H109L26.9,125.8L98.1,215.3z"/>
				</g>
				<g>
					<path d="M227.9,132.9c-3,0-6-1.1-8.3-3.4L169,78.9c-4.6-4.6-4.6-12.1,0-16.7l56.3-56.3c4.6-4.6,12.1-4.6,16.7,0l50.6,50.6
						c2.2,2.2,3.5,5.2,3.5,8.3c0,3.1-1.2,6.1-3.5,8.3l-56.3,56.3C233.9,131.8,230.9,132.9,227.9,132.9z M194,70.5l33.9,33.9
						l39.6-39.6l-33.9-33.9L194,70.5z"/>
				</g>
				<g>
					<path class="st1" d="M284.2,57.7"/>
				</g>
				<g>
					<path class="st1" d="M278.3,165.1"/>
				</g>
				<g>
					<path class="st1" d="M284.2,57.7"/>
				</g>
				<g>
					<path d="M174.7,188.1c-2.8,0-5.6-1-7.9-3l-53.4-47.8c-2.4-2.2-3.8-5.2-3.9-8.5s1.2-6.4,3.4-8.7l56.3-56.3
						c4.6-4.6,12.1-4.6,16.7,0l50.6,50.6c4.6,4.6,4.6,12.1,0,16.7L183,184.6C180.7,186.9,177.7,188.1,174.7,188.1z M138.4,128.1
						l35.8,32l37.2-37.2L177.5,89L138.4,128.1z"/>
				</g>
				<g>
					<path d="M230.7,238.9c-2.8,0-5.6-1-7.9-3l-53.4-47.8c-2.4-2.2-3.8-5.2-3.9-8.5s1.2-6.4,3.4-8.7l56.3-56.3
						c4.6-4.6,12.1-4.6,16.7,0l50.6,50.6c2.2,2.2,3.5,5.2,3.5,8.3s-1.2,6.1-3.5,8.3l-53.4,53.4C236.8,237.7,233.7,238.9,230.7,238.9
						z M194.4,178.9l35.8,32l37.2-37.2l-33.9-33.9L194.4,178.9z"/>
				</g>
				<g>
					<path class="st1" d="M302.1,62.4"/>
				</g>
				<g>
					<path d="M486.3,238.9H348c-5,0-9.4-3.1-11.1-7.7c-1.7-4.6-0.3-9.9,3.5-13.1L448.3,127L339.7,20.2c-3.4-3.4-4.5-8.4-2.6-12.9
						S343.2,0,348,0h127.4c3.6,0,7,1.6,9.2,4.4l91.5,113.9c3.5,4.3,3.5,10.4,0,14.7l-80.6,101.4
						C493.3,237.3,489.9,238.9,486.3,238.9z M380.2,215.3h100.4l71.2-89.6l-82-102.1h-92.9l97.2,95.6c2.4,2.3,3.6,5.5,3.5,8.9
						c-0.1,3.3-1.6,6.4-4.2,8.6L380.2,215.3z"/>
				</g>
				<g>
					<path d="M350.8,132.9c-3.1,0-6.1-1.2-8.3-3.4l-56.3-56.3c-2.2-2.2-3.5-5.2-3.5-8.3c0-3.1,1.2-6.1,3.5-8.3L336.8,6
						c2.2-2.2,5.2-3.4,8.3-3.4l0,0c3.1,0,6.1,1.2,8.3,3.5l56.3,56.3c4.6,4.6,4.6,12.1,0,16.7l-50.6,50.6
						C357,131.7,354,132.9,350.8,132.9z M311.2,64.8l39.6,39.6l33.9-33.9l-39.6-39.6L311.2,64.8z"/>
				</g>
				<g>
					<path class="st1" d="M297.5,57.7"/>
				</g>
				<g>
					<path class="st1" d="M303.4,165.1"/>
				</g>
				<g>
					<path class="st1" d="M297.5,57.7"/>
				</g>
				<g>
					<path d="M404,188.1c-3,0-6-1.2-8.3-3.4l-53.5-53.4c-2.2-2.2-3.5-5.2-3.5-8.3s1.2-6.1,3.5-8.3l50.6-50.6
						c2.2-2.2,5.2-3.4,8.3-3.4l0,0c3.1,0,6.1,1.2,8.3,3.5l56.3,56.3c2.3,2.3,3.5,5.4,3.5,8.7c-0.1,3.2-1.5,6.3-3.9,8.5l-53.4,47.8
						C409.6,187.1,406.8,188.1,404,188.1z M367.3,122.9l37.2,37.2l35.8-32L401.2,89L367.3,122.9z"/>
				</g>
				<g>
					<path d="M348,238.9c-3,0-5.6-1.8-8.3-3.5L286.2,182c-2.2-2.2-3.5-5.2-3.5-8.3s1.2-6.1,3.5-8.3l50.6-50.6
						c4.6-4.6,12.1-4.6,16.7,0l56.3,56.3c2.3,2.3,3.5,5.4,3.5,8.7s-1.5,6.3-3.9,8.5L356,236.1C353.6,237.9,350.8,238.9,348,238.9z
						 M311.2,173.7l37.2,37.2l35.8-32l-39.1-39.1L311.2,173.7z"/>
				</g>
			</g>
		</g>
	</g>
</g>
<g id="Layer_2_00000024692914843670518350000000779193412683162805_">
	<path class="st2" d="M469.8,23.6l82,102.1l-71.2,89.6H380.2l93.2-78.6c0,0,9.3-7,0-17.4c-9.8-10.4-96.5-95.7-96.5-95.7L469.8,23.6
		L469.8,23.6z"/>
</g>
<g id="Layer_3">
	<path class="st2" d="M109.1,23.4l-82,102.1l71.2,89.6h100.4l-93.2-78.6c0,0-9.3-7,0-17.4c9.8-10.4,96.5-95.7,96.5-95.7
		S109.1,23.4,109.1,23.4z"/>
</g>
<g id="Layer_4">
	<polygon class="st2" points="289.4,76.4 332.2,119.5 289.4,162.2 246.5,119.2 	"/>
</g>
<g id="Layer_5">
	<rect x="324" y="39.6" transform="matrix(0.7071 -0.7071 0.7071 0.7071 54.0888 265.8152)" class="st2" width="47.9" height="56"/>
</g>
<g id="Layer_6">
	
		<rect x="202.7" y="43.7" transform="matrix(0.7071 -0.7071 0.7071 0.7071 19.7126 182.9633)" class="st2" width="56" height="47.9"/>
	<polygon class="st2" points="401.2,89 440.3,128.1 404.5,160.1 367.3,122.9 	"/>
	<polygon class="st2" points="345.1,139.8 384.2,178.9 348.4,210.9 311.2,173.7 	"/>
	<polygon class="st2" points="233.5,139.8 267.4,173.7 230.2,210.9 194.4,178.9 	"/>
	<polygon class="st2" points="177.5,89 211.4,122.9 174.2,160.1 138.4,128.1 	"/>
</g>
</svg>
